<?xml version="1.0" standalone="no"?>
<!DOCTYPE svg PUBLIC "-//W3C//DTD SVG 1.1//EN" "http://www.w3.org/Graphics/SVG/1.1/DTD/svg11.dtd" >
<svg xmlns="http://www.w3.org/2000/svg" xmlns:xlink="http://www.w3.org/1999/xlink" version="1.1">
<metadata>
Created by FontForge 20170910 at Fri Sep 26 02:08:54 2014
 By Jimmy Wärting
Copyright Darrell Flood 2014
</metadata>
<defs>
<font id="SmoothCirculars-Italic" horiz-adv-x="1024" >
  <font-face 
    font-family="Smooth Circulars"
    font-weight="400"
    font-style="italic"
    font-stretch="normal"
    units-per-em="1024"
    panose-1="2 0 0 0 0 0 0 9 0 0"
    ascent="819"
    descent="-205"
    x-height="896"
    cap-height="1152"
    bbox="-516 -450 2117 1536"
    underline-thickness="51"
    underline-position="77"
    slope="-30"
    unicode-range="U+0020-20AC"
  />
<missing-glyph horiz-adv-x="640" 
 />
    <glyph glyph-name=".notdef" horiz-adv-x="640" 
 />
    <glyph glyph-name="_1" horiz-adv-x="0" 
 />
    <glyph glyph-name="_2" horiz-adv-x="384" 
 />
    <glyph glyph-name="space" unicode=" " horiz-adv-x="384" 
 />
    <glyph glyph-name="exclam" unicode="!" horiz-adv-x="320" 
d="M148 256l517 896h192l-517 -896h-192zM259 164q12 -28 -12 -68q-23 -40 -67 -68t-84 -28t-52 28t11 68q24 40 68 68t84 28t52 -28z" />
    <glyph glyph-name="quotedbl" unicode="&#x22;" horiz-adv-x="640" 
d="M517 896l148 256h192l-148 -256h-192zM837 896l148 256h192l-148 -256h-192z" />
    <glyph glyph-name="numbersign" unicode="#" 
d="M128 0l111 192h-128l111 192h128l111 192h-128l110 192h128l74 128h192l-74 -128h256l74 128h192l-74 -128h128l-110 -192h-128l-111 -192h128l-111 -192h-128l-111 -192h-192l111 192h-256l-111 -192h-192zM653 576l-111 -192h256l111 192h-256z" />
    <glyph glyph-name="dollar" unicode="$" 
d="M1123 1335l116 201h192l-116 -201q110 -26 150 -122q6 -14 10 -28l-214 -171q2 34 -10 63q-16 38 -52 57l-212 -366h352l-184 -320q-108 -186 -314 -317q-152 -96 -292 -122l-116 -201h-192l116 201q-110 26 -150 122q-6 13 -10 26l213 172q-1 -33 11 -62q16 -38 52 -57
l212 366h-352l184 320q108 186 314 317q152 96 292 122zM877 576l-212 -366q58 19 118 57q118 75 180 181l74 128h-160zM795 768l212 366q-58 -19 -118 -57q-118 -75 -180 -181l-74 -128h160z" />
    <glyph glyph-name="percent" unicode="%" 
d="M0 0l1184 896h229l-1184 -896h-229zM557 576q-40 0 -52 28t11 68t67 68t84 28t52 -28t-11 -68t-67 -68t-84 -28zM746 128q-40 0 -52 28t11 68t67.5 68t84.5 28t51.5 -28t-11.5 -68t-67 -68t-84 -28z" />
    <glyph glyph-name="ampersand" unicode="&#x26;" horiz-adv-x="768" 
d="M394 128l111 192h-192l111 192h192l110 192h192l-110 -192h192l-111 -192h-192l-111 -192h-192z" />
    <glyph glyph-name="quotesingle" unicode="'" horiz-adv-x="384" 
d="M517 896l148 256h192l-148 -256h-192z" />
    <glyph glyph-name="parenleft" unicode="(" horiz-adv-x="640" 
d="M-111 -192l887 1536h512l-111 -192h-320l-665 -1152h320l-111 -192h-512z" />
    <glyph glyph-name="parenright" unicode=")" horiz-adv-x="640" 
d="M-111 -192l111 192h320l665 1152h-320l111 192h512l-887 -1536h-512z" />
    <glyph glyph-name="asterisk" unicode="*" horiz-adv-x="576" 
d="M387 448l74 128h-128l110 192h128l74 128h192l-74 -128h128l-110 -192h-128l-74 -128h-192z" />
    <glyph glyph-name="plus" unicode="+" 
d="M352 0l222 384h-352l111 192h352l184 320h192l-184 -320h352l-111 -192h-352l-222 -384h-192z" />
    <glyph glyph-name="comma" unicode="," horiz-adv-x="448" 
d="M-37 -64l148 256h192l-148 -256h-192z" />
    <glyph glyph-name="hyphen" unicode="-" 
d="M222 384l111 192h896l-111 -192h-896z" />
    <glyph glyph-name="period" unicode="." horiz-adv-x="448" 
d="M96 0q-40 0 -52 28t11 68q24 40 68 68t84 28t52 -28t-12 -68q-23 -40 -67 -68t-84 -28z" />
    <glyph glyph-name="slash" unicode="/" horiz-adv-x="1280" 
d="M-387 -448l2218 1792h225l-2219 -1792h-224z" />
    <glyph glyph-name="zero" unicode="0" 
d="M451 448q-62 -106 -30 -181t138 -75t224 75t180 181l258 448q62 106 30 181t-138 75t-224 -75t-180 -181zM517 896q108 186 314.5 317t392.5 131t241.5 -131t-52.5 -317l-258 -448q-108 -186 -314.5 -317t-392.5 -131t-241.5 131t52.5 317z" />
    <glyph glyph-name="one" unicode="1" horiz-adv-x="320" 
d="M968 1344l-776 -1344h-192l776 1344h192z" />
    <glyph glyph-name="two" unicode="2" 
d="M559 192h448l-111 -192h-896q1010 640 1146.5 821t104.5 256t-138 75t-224 -75t-180 -181h-192q108 186 314.5 317t392.5 131t241.5 -131t-122.5 -384t-784 -637z" />
    <glyph glyph-name="three" unicode="3" 
d="M1241 1152h-576l111 192h896l-532 -495q44 -31 67 -84q55 -131 -52 -317q-108 -186 -314.5 -317t-392.5 -131t-241 131q-56 131 51 316h192q-61 -105 -29 -180t138 -75t224 75t180 181q61 106 29 181t-138 75q-46 0 -93 -9z" />
    <glyph glyph-name="four" unicode="4" 
d="M926 384l-222 -384h-192l222 384h-512l554 960h192l-443 -768h320l443 768h192l-443 -768h192l-111 -192h-192z" />
    <glyph glyph-name="five" unicode="5" 
d="M689 860q131 36 276 36q186 0 241.5 -131t-51.5 -317q-108 -186 -314.5 -317t-392.5 -131t-241 131q-55 130 50 315h192q-59 -105 -28 -179q32 -75 138 -75t224 75t180 181q61 106 29 181t-138 75q-256 0 -521 -128l443 768h896l-111 -192h-704z" />
    <glyph glyph-name="six" unicode="6" 
d="M963 448q61 106 29 181t-138 75t-224 -75t-179 -181q-62 -106 -30 -181t138 -75t224 75t180 181zM1113 1152q-106 0 -224 -75t-180 -181l-45 -79q156 79 301 79q186 0 241.5 -131t-51.5 -317q-108 -186 -314.5 -317t-392.5 -131t-241.5 131t52.5 317l258 448
q108 186 314.5 317t392.5 131h256l-111 -192h-256z" />
    <glyph glyph-name="seven" unicode="7" 
d="M776 1344h896l-1446 -1344h-226l1241 1152h-576z" />
    <glyph glyph-name="eight" unicode="8" horiz-adv-x="960" 
d="M540 925q59 157 265.5 288t392.5 131t241.5 -131t-67.5 -288t-345 -255q112 -94 53 -251t-265.5 -288t-392.5 -131t-241.5 131t67.5 288t331 251q-98 98 -39 255zM832.5 544q-77.5 32 -192 0t-196 -117t-49.5 -160t138 -75t224 75t135.5 160t-60 117zM1175.5 917
q81.5 85 49.5 160t-138 75t-224 -75t-135.5 -160t60 -117t192 0t196 117z" />
    <glyph glyph-name="nine" unicode="9" 
d="M1221 896q62 106 30 181t-138 75t-224 -75t-180 -181q-61 -106 -29 -181t138 -75t224 75t179 181zM559 192q106 0 224 75t180 181l45 79q-156 -79 -301 -79q-186 0 -241.5 131t51.5 317q108 186 314.5 317t392.5 131t241.5 -131t-52.5 -317l-258 -448
q-108 -186 -314.5 -317t-392.5 -131h-256l111 192h256z" />
    <glyph glyph-name="colon" unicode=":" horiz-adv-x="448" 
d="M554 676q12 -28 -11 -68t-67 -68t-84 -28t-52 28t11 68t67 68t84 28t52 -28zM369.5 356q11.5 -28 -11.5 -68t-67 -68t-84 -28t-52 28t11 68t67.5 68t84.5 28t51.5 -28z" />
    <glyph glyph-name="semicolon" unicode=";" horiz-adv-x="384" 
d="M74 128l148 256h192l-148 -256h-192zM554 676q12 -28 -11 -68t-67 -68t-84 -28t-52 28t11 68t67 68t84 28t52 -28z" />
    <glyph glyph-name="less" unicode="&#x3c;" 
d="M550 448l346 -448h-290l-347 448l864 448h290z" />
    <glyph glyph-name="equal" unicode="=" horiz-adv-x="768" 
d="M37 64l111 192h640l-111 -192h-640zM222 384l111 192h640l-111 -192h-640z" />
    <glyph glyph-name="greater" unicode="&#x3e;" 
d="M517 896h290l348 -448l-865 -448h-290l864 448z" />
    <glyph glyph-name="question" unicode="?" 
d="M448 0q-40 0 -52 28t11 68q24 40 68 68t84 28t52 -28t-12 -68q-23 -40 -67 -68t-84 -28zM1110 704q62 106 30 181t-138 75t-224 -75t-180 -181q-20 -35 -30 -67h-196q15 33 34 67q108 186 314.5 317t392.5 131t241.5 -131t-52.5 -317q-39 -69 -157 -162.5t-379 -157.5
l-74 -128h-192l185 320q273 -26 425 128z" />
    <glyph glyph-name="at" unicode="@" horiz-adv-x="960" 
d="M653 272q-60 -42 -139 -42q-73 0 -100 42t5 115q50 115 166.5 204t230.5 89q59 0 149 -50q-105 -150 -125.5 -186.5t-30.5 -61.5q-13 -28 -1 -28q48 0 105 59.5t92 141.5q54 107 12.5 160.5t-136.5 53.5q-152 0 -298.5 -112.5t-218.5 -282.5q-49 -112 -13 -179t139 -67
q55 0 116.5 18.5t121.5 63.5l38 -105q-82 -51 -175 -78t-168 -27q-161 0 -218.5 100.5t10.5 260.5q99 229 306 382t426 153q158 0 216 -86.5t-7 -235.5q-56 -132 -172.5 -235t-234.5 -103q-79 0 -96 36zM748 576q-45 0 -103.5 -55t-86.5 -120q-19 -42 10 -42q30 0 63.5 26
t61.5 70t71 115q-3 6 -16 6z" />
    <glyph glyph-name="A" unicode="A" 
d="M963 448q61 106 29 181t-138 75t-224 -75t-179 -181q-62 -106 -30 -181t138 -75t224 75t180 181zM1155 448q-108 -186 -314.5 -317t-392.5 -131t-241.5 131t52.5 317q107 186 313.5 317t392.5 131q145 0 211 -79l45 79h192z" />
    <glyph glyph-name="B" unicode="B" 
d="M963 448q61 106 29 181t-138 75t-224 -75t-179 -181q-62 -106 -30 -181t138 -75t224 75t180 181zM664 817q156 79 301 79q186 0 241.5 -131t-51.5 -317q-108 -186 -314.5 -317t-392.5 -131t-241.5 131t52.5 317l406 704h192z" />
    <glyph glyph-name="C" unicode="C" horiz-adv-x="832" 
d="M841 131q-207 -131 -393 -131t-241.5 131t52.5 317q107 186 313.5 317t392.5 131t242 -131v-1l-214 -136l-1 1q-32 75 -138 75t-224 -75t-179 -181q-62 -106 -30 -181t138 -75t224 75l2 1l57 -136z" />
    <glyph glyph-name="D" unicode="D" 
d="M963 448q61 106 29 181t-138 75t-224 -75t-179 -181q-62 -106 -30 -181t138 -75t224 75t180 181zM1155 448q-108 -186 -314.5 -317t-392.5 -131t-241.5 131t52.5 317q107 186 313.5 317t392.5 131q145 0 211 -79l193 335h192z" />
    <glyph glyph-name="E" unicode="E" 
d="M421 267q32 -75 138 -75t224 75l2 1l57 -136l-1 -1q-207 -131 -393 -131t-241.5 131t52.5 317q107 186 313.5 317t392.5 131t241.5 -131t-51.5 -317q-19 -32 -43 -64h-58h-632q-22 -66 -1 -117zM992 629q-32 75 -138 75t-224 -75q-39 -25 -71 -53h444q0 28 -11 53z" />
    <glyph glyph-name="F" unicode="F" horiz-adv-x="768" 
d="M406 704q108 186 314.5 317t392.5 131t241 -131l1 -1l-215 -136v1q-32 75 -138 75t-224 -75q-80 -51 -135 -117h440l-110 -192h-448l-333 -576h-192z" />
    <glyph glyph-name="G" unicode="G" 
d="M559 192q106 0 224 75t180 181q61 106 29 181t-138 75t-224 -75t-179 -181q-62 -106 -30 -181t138 -75zM750 79q-157 -79 -302 -79q-186 0 -241.5 131t52.5 317q107 186 313.5 317t392.5 131t241.5 -131t-51.5 -317l-259 -448q-107 -186 -314 -317t-393 -131l111 192
q106 0 224.5 75t179.5 181z" />
    <glyph glyph-name="H" unicode="H" 
d="M451 448l-259 -448h-192l665 1152h192l-193 -335q156 79 301 79q186 0 241.5 -131t-51.5 -317l-259 -448h-192l259 448q61 106 29 181t-138 75t-224 -75t-179 -181z" />
    <glyph glyph-name="I" unicode="I" horiz-adv-x="320" 
d="M709 896l-517 -896h-192l517 896h192zM650 960q-40 0 -51.5 28t11.5 68t67 68t84 28t52 -28t-11 -68t-67.5 -68t-84.5 -28z" />
    <glyph glyph-name="J" unicode="J" horiz-adv-x="320" 
d="M650 960q-40 0 -51.5 28t11.5 68t67 68t84 28t52 -28t-11 -68t-67.5 -68t-84.5 -28zM517 896h192l-518 -898q-108 -186 -314.5 -317t-392.5 -131l111 192q106 0 224.5 75t179.5 181z" />
    <glyph glyph-name="K" unicode="K" horiz-adv-x="832" 
d="M471 484l585 412h229l-733 -529l216 -367h-256l-172 256l-148 -256h-192l665 1152h192z" />
    <glyph glyph-name="L" unicode="L" horiz-adv-x="320" 
d="M857 1152l-665 -1152h-192l665 1152h192z" />
    <glyph glyph-name="M" unicode="M" horiz-adv-x="1728" 
d="M963 448q61 106 29 181t-138 75t-224 -75t-179 -181l-259 -448h-192l259 448q107 186 313.5 317t392.5 131t242 -131q8 -19 12 -39q28 20 58 39q206 131 392 131t241.5 -131t-51.5 -317l-259 -448h-192l259 448q61 106 29 181t-138 75t-224 -75t-179 -181l-259 -448h-192
z" />
    <glyph glyph-name="N" unicode="N" 
d="M192 0h-192l259 448q107 186 313.5 317t392.5 131t241.5 -131t-51.5 -317l-259 -448h-192l259 448q61 106 29 181t-138 75t-224 -75t-179 -181z" />
    <glyph glyph-name="O" unicode="O" 
d="M448 0q-186 0 -241.5 131t52.5 317q107 186 313.5 317t392.5 131t241.5 -131t-51.5 -317q-108 -186 -314.5 -317t-392.5 -131zM783 267q118 75 180 181q61 106 29 181t-138 75t-224 -75t-179 -181q-62 -106 -30 -181t138 -75t224 75z" />
    <glyph glyph-name="P" unicode="P" 
d="M963 448q61 106 29 181t-138 75t-224 -75t-179 -181q-62 -106 -30 -181t138 -75t224 75t180 181zM259 448q107 186 313.5 317t392.5 131t241.5 -131t-51.5 -317q-108 -186 -314.5 -317t-392.5 -131q-145 0 -210 79l-194 -335h-192z" />
    <glyph glyph-name="Q" unicode="Q" 
d="M559 192q106 0 224 75t180 181q61 106 29 181t-138 75t-224 -75t-179 -181q-62 -106 -30 -181t138 -75zM748 -256h-192l194 335q-157 -79 -302 -79q-186 0 -241.5 131t52.5 317q107 186 313.5 317t392.5 131t241.5 -131t-51.5 -317z" />
    <glyph glyph-name="R" unicode="R" horiz-adv-x="832" 
d="M259 448q107 186 313.5 317t392.5 131t242 -131v-1l-214 -136l-1 1q-32 75 -138 75t-224 -75t-179 -181l-259 -448h-192z" />
    <glyph glyph-name="S" unicode="S" horiz-adv-x="768" 
d="M773 896h384l-111 -192h-355q-102 -1 -122 -40q-33 -58 149 -111q134 -39 162 -97t-35 -167q-83 -143 -208 -216t-285 -73h-352l110 192h348q129 5 169 66q30 52 -40 73q-237 69 -257 137.5t36 165.5q152 264 407 262z" />
    <glyph glyph-name="T" unicode="T" horiz-adv-x="576" 
d="M598 704l-147 -256q-62 -106 -30 -181t138 -75l-111 -192q-186 0 -241.5 131t52.5 317l406 704h192l-148 -256h256l-111 -192h-256z" />
    <glyph glyph-name="U" unicode="U" 
d="M451 448q-62 -106 -30 -181t138 -75t224 75t180 181l258 448h192l-258 -448q-108 -186 -314.5 -317t-392.5 -131t-241.5 131t52.5 317l258 448h192z" />
    <glyph glyph-name="V" unicode="V" 
d="M517 896h229l-39 -448l480 448h226l-965 -896z" />
    <glyph glyph-name="W" unicode="W" horiz-adv-x="1728" 
d="M898 170q-27 -20 -57 -39q-207 -131 -393 -131t-241.5 131t52.5 317l258 448h192l-258 -448q-62 -106 -30 -181t138 -75t224 75t180 181l258 448h192l-258 -448q-62 -106 -30 -181t138 -75t224 75t180 181l258 448h192l-258 -448q-108 -186 -314.5 -317t-392.5 -131
t-241 131q-8 19 -13 39z" />
    <glyph glyph-name="X" unicode="X" 
d="M594 448l-77 448h227l50 -296l392 296h227l-592 -448l75 -448h-227l-50 296l-392 -296h-227z" />
    <glyph glyph-name="Y" unicode="Y" 
d="M259 448l258 448h192l-258 -448q-62 -106 -30 -181t138 -75t224 75t180 181l258 448h192l-517 -896q-107 -186 -314 -317t-393 -131l111 192q106 0 224.5 75t179.5 181l46 79q-157 -79 -302 -79q-186 0 -241.5 131t52.5 317z" />
    <glyph glyph-name="Z" unicode="Z" 
d="M517 896h896l-918 -704h512l-111 -192h-896l918 704h-512z" />
    <glyph glyph-name="bracketleft" unicode="[" horiz-adv-x="640" 
d="M-111 -192l628 1088h512l-111 -192h-320l-406 -704h320l-111 -192h-512z" />
    <glyph glyph-name="backslash" unicode="\" horiz-adv-x="1280" 
d="M797 -448l-149 1792h225l148 -1792h-224z" />
    <glyph glyph-name="bracketright" unicode="]" horiz-adv-x="640" 
d="M-111 -192l111 192h320l406 704h-320l111 192h512l-628 -1088h-512z" />
    <glyph glyph-name="asciicircum" unicode="^" horiz-adv-x="768" 
d="M333 576q184 320 472 320t104 -320h-192q73 128 -23 128t-169 -128h-192z" />
    <glyph glyph-name="underscore" unicode="_" 
d="M-111 -192l111 192h896l-111 -192h-896z" />
    <glyph glyph-name="grave" unicode="`" horiz-adv-x="640" 
d="M776 1344h256l-40 -512h-256z" />
    <glyph glyph-name="a" unicode="a" 
d="M963 448q61 106 29 181t-138 75t-224 -75t-179 -181q-62 -106 -30 -181t138 -75t224 75t180 181zM1155 448q-108 -186 -314.5 -317t-392.5 -131t-241.5 131t52.5 317q107 186 313.5 317t392.5 131q145 0 211 -79l45 79h192z" />
    <glyph glyph-name="b" unicode="b" 
d="M963 448q61 106 29 181t-138 75t-224 -75t-179 -181q-62 -106 -30 -181t138 -75t224 75t180 181zM664 817q156 79 301 79q186 0 241.5 -131t-51.5 -317q-108 -186 -314.5 -317t-392.5 -131t-241.5 131t52.5 317l406 704h192z" />
    <glyph glyph-name="c" unicode="c" horiz-adv-x="896" 
d="M841 131q-207 -131 -393 -131t-241.5 131t52.5 317q107 186 313.5 317t392.5 131t242 -131v-1l-214 -136l-1 1q-32 75 -138 75t-224 -75t-179 -181q-62 -106 -30 -181t138 -75t224 75l2 1l57 -136z" />
    <glyph glyph-name="d" unicode="d" 
d="M963 448q61 106 29 181t-138 75t-224 -75t-179 -181q-62 -106 -30 -181t138 -75t224 75t180 181zM1155 448q-108 -186 -314.5 -317t-392.5 -131t-241.5 131t52.5 317q107 186 313.5 317t392.5 131q145 0 211 -79l193 335h192z" />
    <glyph glyph-name="e" unicode="e" 
d="M421 267q32 -75 138 -75t224 75l2 1l57 -136l-1 -1q-207 -131 -393 -131t-241.5 131t52.5 317q107 186 313.5 317t392.5 131t241.5 -131t-51.5 -317q-19 -32 -43 -64h-58h-632q-22 -66 -1 -117zM992 629q-32 75 -138 75t-224 -75q-39 -25 -71 -53h444q0 28 -11 53z" />
    <glyph glyph-name="f" unicode="f" horiz-adv-x="576" 
d="M406 704q108 186 314.5 317t392.5 131l-111 -192q-106 0 -224 -75q-80 -51 -135 -117h248l-110 -192h-256l-333 -576h-192z" />
    <glyph glyph-name="g" unicode="g" 
d="M559 192q106 0 224 75t180 181q61 106 29 181t-138 75t-224 -75t-179 -181q-62 -106 -30 -181t138 -75zM750 79q-157 -79 -302 -79q-186 0 -241.5 131t52.5 317q107 186 313.5 317t392.5 131t241.5 -131t-51.5 -317l-259 -448q-107 -186 -314 -317t-393 -131l111 192
q106 0 224.5 75t179.5 181z" />
    <glyph glyph-name="h" unicode="h" 
d="M451 448l-259 -448h-192l665 1152h192l-193 -335q156 79 301 79q186 0 241.5 -131t-51.5 -317l-259 -448h-192l259 448q61 106 29 181t-138 75t-224 -75t-179 -181z" />
    <glyph glyph-name="i" unicode="i" horiz-adv-x="320" 
d="M709 896l-517 -896h-192l517 896h192zM650 960q-40 0 -51.5 28t11.5 68t67 68t84 28t52 -28t-11 -68t-67.5 -68t-84.5 -28z" />
    <glyph glyph-name="j" unicode="j" horiz-adv-x="320" 
d="M650 960q-40 0 -51.5 28t11.5 68t67 68t84 28t52 -28t-11 -68t-67.5 -68t-84.5 -28zM517 896h192l-518 -898q-108 -186 -314.5 -317t-392.5 -131l111 192q106 0 224.5 75t179.5 181z" />
    <glyph glyph-name="k" unicode="k" horiz-adv-x="832" 
d="M471 484l585 412h229l-733 -529l216 -367h-256l-172 256l-148 -256h-192l665 1152h192z" />
    <glyph glyph-name="l" unicode="l" horiz-adv-x="320" 
d="M857 1152l-665 -1152h-192l665 1152h192z" />
    <glyph glyph-name="m" unicode="m" horiz-adv-x="1728" 
d="M963 448q61 106 29 181t-138 75t-224 -75t-179 -181l-259 -448h-192l259 448q107 186 313.5 317t392.5 131t242 -131q8 -19 12 -39q28 20 58 39q206 131 392 131t241.5 -131t-51.5 -317l-259 -448h-192l259 448q61 106 29 181t-138 75t-224 -75t-179 -181l-259 -448h-192
z" />
    <glyph glyph-name="n" unicode="n" 
d="M192 0h-192l259 448q107 186 313.5 317t392.5 131t241.5 -131t-51.5 -317l-259 -448h-192l259 448q61 106 29 181t-138 75t-224 -75t-179 -181z" />
    <glyph glyph-name="o" unicode="o" 
d="M448 0q-186 0 -241.5 131t52.5 317q107 186 313.5 317t392.5 131t241.5 -131t-51.5 -317q-108 -186 -314.5 -317t-392.5 -131zM783 267q118 75 180 181q61 106 29 181t-138 75t-224 -75t-179 -181q-62 -106 -30 -181t138 -75t224 75z" />
    <glyph glyph-name="p" unicode="p" 
d="M963 448q61 106 29 181t-138 75t-224 -75t-179 -181q-62 -106 -30 -181t138 -75t224 75t180 181zM259 448q107 186 313.5 317t392.5 131t241.5 -131t-51.5 -317q-108 -186 -314.5 -317t-392.5 -131q-145 0 -210 79l-194 -335h-192z" />
    <glyph glyph-name="q" unicode="q" 
d="M559 192q106 0 224 75t180 181q61 106 29 181t-138 75t-224 -75t-179 -181q-62 -106 -30 -181t138 -75zM748 -256h-192l194 335q-157 -79 -302 -79q-186 0 -241.5 131t52.5 317q107 186 313.5 317t392.5 131t241.5 -131t-51.5 -317z" />
    <glyph glyph-name="r" unicode="r" horiz-adv-x="576" 
d="M259 448q107 186 313.5 317t392.5 131l-111 -192q-106 0 -224 -75t-179 -181l-259 -448h-192z" />
    <glyph glyph-name="s" unicode="s" horiz-adv-x="768" 
d="M773 896h384l-111 -192h-355q-102 -1 -122 -40q-33 -58 149 -111q134 -39 162 -97t-35 -167q-83 -143 -208 -216t-285 -73h-352l110 192h348q129 5 169 66q30 52 -40 73q-237 69 -257 137.5t36 165.5q152 264 407 262z" />
    <glyph glyph-name="t" unicode="t" horiz-adv-x="576" 
d="M598 704l-147 -256q-62 -106 -30 -181t138 -75l-111 -192q-186 0 -241.5 131t52.5 317l406 704h192l-148 -256h256l-111 -192h-256z" />
    <glyph glyph-name="u" unicode="u" 
d="M451 448q-62 -106 -30 -181t138 -75t224 75t180 181l258 448h192l-258 -448q-108 -186 -314.5 -317t-392.5 -131t-241.5 131t52.5 317l258 448h192z" />
    <glyph glyph-name="v" unicode="v" 
d="M517 896h229l-39 -448l480 448h226l-965 -896z" />
    <glyph glyph-name="w" unicode="w" horiz-adv-x="1728" 
d="M898 170q-27 -20 -57 -39q-207 -131 -393 -131t-241.5 131t52.5 317l258 448h192l-258 -448q-62 -106 -30 -181t138 -75t224 75t180 181l258 448h192l-258 -448q-62 -106 -30 -181t138 -75t224 75t180 181l258 448h192l-258 -448q-108 -186 -314.5 -317t-392.5 -131
t-241 131q-8 19 -13 39z" />
    <glyph glyph-name="x" unicode="x" 
d="M594 448l-77 448h227l50 -296l392 296h227l-592 -448l75 -448h-227l-50 296l-392 -296h-227z" />
    <glyph glyph-name="y" unicode="y" 
d="M259 448l258 448h192l-258 -448q-62 -106 -30 -181t138 -75t224 75t180 181l258 448h192l-517 -896q-107 -186 -314 -317t-393 -131l111 192q106 0 224.5 75t179.5 181l46 79q-157 -79 -302 -79q-186 0 -241.5 131t52.5 317z" />
    <glyph glyph-name="z" unicode="z" 
d="M517 896h896l-918 -704h512l-111 -192h-896l918 704h-512z" />
    <glyph glyph-name="braceleft" unicode="{" horiz-adv-x="832" 
d="M81 -192l333 576h-192l111 192h192l332 576h512l-111 -192h-320l-554 -960h320l-111 -192h-512z" />
    <glyph glyph-name="bar" unicode="|" horiz-adv-x="320" 
d="M-259 -448l1035 1792h192l-1035 -1792h-192z" />
    <glyph glyph-name="braceright" unicode="}" horiz-adv-x="832" 
d="M-111 -192l111 192h320l554 960h-320l111 192h512l-332 -576h192l-111 -192h-192l-333 -576h-512z" />
    <glyph glyph-name="asciitilde" unicode="~" horiz-adv-x="640" 
d="M187 324q35 -50 263.5 124t391.5 124l-115 -199q-35 50 -263.5 -124t-391.5 -124z" />
    <glyph glyph-name="quoteleft" unicode="&#x2018;" horiz-adv-x="320" 
d="M517 896l148 256h192l-148 -256h-192z" />
    <glyph glyph-name="quoteright" unicode="&#x2019;" horiz-adv-x="320" 
d="M517 896l148 256h192l-148 -256h-192z" />
    <glyph glyph-name="quotedblleft" unicode="&#x201c;" horiz-adv-x="768" 
d="M517 896l148 256h192l-148 -256h-192zM837 896l148 256h192l-148 -256h-192z" />
    <glyph glyph-name="quotedblright" unicode="&#x201d;" horiz-adv-x="768" 
d="M517 896l148 256h192l-148 -256h-192zM837 896l148 256h192l-148 -256h-192z" />
    <glyph glyph-name="sterling" unicode="&#xa3;" 
d="M461 576q-18 192 73 349t297.5 288t392.5 131t241.5 -131t-52.5 -317v-1h-192v1q62 106 30 181t-138 75t-224 -75t-186 -192t-50 -309h384l-111 -192h-384l-175 -192h640l-111 -192h-896l350 384h-192l111 192h192z" />
    <glyph glyph-name="Euro" unicode="&#x20ac;" 
d="M525 576l-74 -128q-62 -106 -30 -181t138 -75t224 75t179 180h192q-107 -185 -313 -316q-207 -131 -393 -131t-241.5 131t52.5 317l74 128h-192l110 192h192l74 128q108 186 314.5 317t392.5 131t241.5 -131t-52.5 -317v-1h-192v1q62 106 30 181t-138 75t-224 -75
t-180 -181l-74 -128h192l-110 -192h-192z" />
    <glyph glyph-name="yen" unicode="&#xa5;" 
d="M572 384l42 74q-109 26 -149 121q-55 131 52 317l259 448h192l-259 -448q-61 -106 -29 -181t138 -75t224 75t179 181l259 448h192l-259 -448q-107 -186 -314 -317q-153 -97 -293 -122l-42 -73h354l-111 -192h-354l-111 -192h-192l111 192h-350l111 192h350z" />
  </font>
</defs>
</svg>
